# Made in Blockbench 4.1.5
mtllib Tropicstone Pebbles.mtl

o cube
v -0.047849478412711664 0.05710873396793712 -0.07189494771418986
v -0.047849478412711664 0.10595012502909634 -0.18695805439574492
v -0.0202962712824252 -0.006673935558213703 -0.09896908463866069
v -0.0202962712824252 0.042167455502945525 -0.21403219132021573
v -0.1587150223140661 0.061917380425608376 -0.20564884556851493
v -0.1587150223140661 0.013075989364449151 -0.0905857388869599
v -0.13116181518377962 -0.001865289100542452 -0.23272298249298576
v -0.13116181518377962 -0.05070668016170168 -0.11765987581143073
vt 0 1
vt 0.3125 1
vt 0.3125 0.8125
vt 0 0.8125
vt 0 1
vt 0.3125 1
vt 0.3125 0.8125
vt 0 0.8125
vt 0.625 0.375
vt 0.9375 0.375
vt 0.9375 0.1875
vt 0.625 0.1875
vt 0.0625 0.75
vt 0.375 0.75
vt 0.375 0.5625
vt 0.0625 0.5625
vt 0.0625 0.5
vt 0.375 0.5
vt 0.375 0.1875
vt 0.0625 0.1875
vt 0.4375 0.9375
vt 0.75 0.9375
vt 0.75 0.625
vt 0.4375 0.625
vn 0 0.3907311284892739 -0.9205048534524404
vn 0.9292293663682053 0.34012970055425007 0.1443764921301932
vn 0 -0.3907311284892739 0.9205048534524404
vn -0.9292293663682053 -0.34012970055425007 -0.1443764921301932
vn -0.3961684544008962 0.8451871630002558 0.35876066567725085
vn 0.3961684544008962 -0.8451871630002558 -0.35876066567725085
usemtl m_0
f 4/4/1 7/3/1 5/2/1 2/1/1
f 3/8/2 4/7/2 2/6/2 1/5/2
f 8/12/3 3/11/3 1/10/3 6/9/3
f 7/16/4 8/15/4 6/14/4 5/13/4
f 6/20/5 1/19/5 2/18/5 5/17/5
f 7/24/6 4/23/6 3/22/6 8/21/6
o cube
v 0.1255306199373039 -0.017953178689832965 -0.07659782985880581
v 0.1255306199373039 0.021119934159094415 -0.16864831520404985
v 0.10716181518377962 -0.06047495837393352 -0.09464725447511971
v 0.10716181518377962 -0.02140184552500614 -0.18669773982036375
v 0.03683818481622039 0.05634612984188479 -0.15369568226583383
v 0.03683818481622039 0.017273016992957413 -0.0616451969205898
v 0.018469380062696092 0.01382435015778424 -0.17174510688214772
v 0.018469380062696092 -0.02524876269114314 -0.07969462153690368
vt 0 1
vt 0.25 1
vt 0.25 0.875
vt 0 0.875
vt 0.75 0.875
vt 1 0.875
vt 1 0.75
vt 0.75 0.75
vt 0.0625 0.6875
vt 0.3125 0.6875
vt 0.3125 0.5625
vt 0.0625 0.5625
vt 0.375 0.875
vt 0.625 0.875
vt 0.625 0.75
vt 0.375 0.75
vt 0.5625 0.5
vt 0.8125 0.5
vt 0.8125 0.25
vt 0.5625 0.25
vt 0.0625 0.375
vt 0.3125 0.375
vt 0.3125 0.125
vt 0.0625 0.125
vn 0 0.3907311284892739 -0.9205048534524404
vn 0.9292293663682053 -0.34012970055425007 -0.1443764921301932
vn 0 -0.3907311284892739 0.9205048534524404
vn -0.9292293663682053 0.34012970055425007 0.1443764921301932
vn 0.3961684544008962 0.8451871630002558 0.35876066567725085
vn -0.3961684544008962 -0.8451871630002558 -0.35876066567725085
usemtl m_0
f 12/28/7 15/27/7 13/26/7 10/25/7
f 11/32/8 12/31/8 10/30/8 9/29/8
f 16/36/9 11/35/9 9/34/9 14/33/9
f 15/40/10 16/39/10 14/38/10 13/37/10
f 14/44/11 9/43/11 10/42/11 13/41/11
f 15/48/12 12/47/12 11/46/12 16/45/12
o cube
v -0.04799999999999999 -0.07012475132276472 0.07253588188223592
v -0.04799999999999999 -0.016630967636201074 0.019967687059747108
v -0.04799999999999999 -0.10517021453775724 0.03687335942452685
v -0.04799999999999999 -0.05167643085119361 -0.015694835397961987
v -0.12 -0.016630967636201074 0.019967687059747108
v -0.12 -0.07012475132276472 0.07253588188223592
v -0.12 -0.05167643085119361 -0.015694835397961987
v -0.12 -0.10517021453775724 0.03687335942452685
vt 0 1
vt 0.1875 1
vt 0.1875 0.875
vt 0 0.875
vt 0 1
vt 0.1875 1
vt 0.1875 0.875
vt 0 0.875
vt 0 1
vt 0.1875 1
vt 0.1875 0.875
vt 0 0.875
vt 0.25 1
vt 0.4375 1
vt 0.4375 0.875
vt 0.25 0.875
vt 0.5 0.875
vt 0.6875 0.875
vt 0.6875 0.6875
vt 0.5 0.6875
vt 0.125 0.8125
vt 0.3125 0.8125
vt 0.3125 0.625
vt 0.125 0.625
vn 0 0.7132504491541818 -0.7009092642998508
vn 1 0 0
vn 0 -0.7132504491541818 0.7009092642998508
vn -1 0 0
vn 0 0.7009092642998508 0.7132504491541818
vn 0 -0.7009092642998508 -0.7132504491541818
usemtl m_0
f 20/52/13 23/51/13 21/50/13 18/49/13
f 19/56/14 20/55/14 18/54/14 17/53/14
f 24/60/15 19/59/15 17/58/15 22/57/15
f 23/64/16 24/63/16 22/62/16 21/61/16
f 22/68/17 17/67/17 18/66/17 21/65/17
f 23/72/18 20/71/18 19/70/18 24/69/18
o cube
v 0.16799999999999998 -0.05719801862756811 0.06969778053224313
v 0.16799999999999998 -0.02789318399087258 0.0006599165233101001
v 0.16799999999999998 -0.08021063996387912 0.05992950232001126
v 0.16799999999999998 -0.050905805327183584 -0.009108361688921762
v 0.07200000000000001 -0.02789318399087258 0.0006599165233101001
v 0.07200000000000001 -0.05719801862756811 0.06969778053224313
v 0.07200000000000001 -0.050905805327183584 -0.009108361688921762
v 0.07200000000000001 -0.08021063996387912 0.05992950232001126
vt 0.0625 0.9375
vt 0.3125 0.9375
vt 0.3125 0.875
vt 0.0625 0.875
vt 0.75 0.9375
vt 0.9375 0.9375
vt 0.9375 0.875
vt 0.75 0.875
vt 0.1875 0.8125
vt 0.4375 0.8125
vt 0.4375 0.75
vt 0.1875 0.75
vt 0.5 0.875
vt 0.6875 0.875
vt 0.6875 0.8125
vt 0.5 0.8125
vt 0.0625 0.6875
vt 0.3125 0.6875
vt 0.3125 0.5
vt 0.0625 0.5
vt 0.625 0.6875
vt 0.875 0.6875
vt 0.875 0.5
vt 0.625 0.5
vn 0 0.3907311284892737 -0.9205048534524403
vn 1 0 0
vn 0 -0.3907311284892737 0.9205048534524403
vn -1 0 0
vn 0 0.9205048534524403 0.3907311284892737
vn 0 -0.9205048534524403 -0.3907311284892737
usemtl m_0
f 28/76/19 31/75/19 29/74/19 26/73/19
f 27/80/20 28/79/20 26/78/20 25/77/20
f 32/84/21 27/83/21 25/82/21 30/81/21
f 31/88/22 32/87/22 30/86/22 29/85/22
f 30/92/23 25/91/23 26/90/23 29/89/23
f 31/96/24 28/95/24 27/94/24 32/93/24